{"title":"Resident evil afterlife hindi by TheAaax9","uid":5838696,"size":1035117014,"categoryP":"video","categoryS":"movies","magnet":"?xt=urn:btih:36a4307919c2a0e467b23e052b601f7e58532630&amp;dn=Resident+evil+afterlife+hindi+by+TheAaax9&amp;tr=udp%3A%2F%2Ftracker.openbittorrent.com%3A80&amp;tr=udp%3A%2F%2Fopen.demonii.com%3A1337&amp;tr=udp%3A%2F%2Ftracker.coppersurfer.tk%3A6969&amp;tr=udp%3A%2F%2Fexodus.desync.com%3A6969","seeders":0,"leechers":1,"uploader":"TheAaax9","files":-1,"time":1284836297,"description":"                           $$TheAaax9$$\nscreenshots :- &lt;a href=&quot;\nhttp://www.starshare.ro/bitbucket/vlcsnap2010-09-14-19h50m46s6.jpg&quot; rel=&quot;nofollow&quot; target=&quot;_NEW&quot;&gt;\nhttp://www.starshare.ro/bitbucket/vlcsnap2010-09-14-19h50m46s6.jpg&lt;/a&gt; &lt;a href=&quot;\nhttp://www.starshare.ro/bitbucket/vlcsnap2010-09-14-19h50m53s81.jpg&quot; rel=&quot;nofollow&quot; target=&quot;_NEW&quot;&gt;\nhttp://www.starshare.ro/bitbucket/vlcsnap2010-09-14-19h50m53s81.jpg&lt;/a&gt; &lt;a href=&quot;\nhttp://www.starshare.ro/bitbucket/vlcsnap2010-09-14-19h51m04s199.jpg&quot; rel=&quot;nofollow&quot; target=&quot;_NEW&quot;&gt;\nhttp://www.starshare.ro/bitbucket/vlcsnap2010-09-14-19h51m04s199.jpg&lt;/a&gt; &lt;a href=&quot;\nhttp://www.starshare.ro/bitbucket/vlcsnap2010-09-14-19h51m14s31.jpg&quot; rel=&quot;nofollow&quot; target=&quot;_NEW&quot;&gt;\nhttp://www.starshare.ro/bitbucket/vlcsnap2010-09-14-19h51m14s31.jpg&lt;/a&gt; &lt;a href=&quot;\nhttp://www.starshare.ro/bitbucket/vlcsnap2010-09-14-19h51m57s205.jpg&quot; rel=&quot;nofollow&quot; target=&quot;_NEW&quot;&gt;\nhttp://www.starshare.ro/bitbucket/vlcsnap2010-09-14-19h51m57s205.jpg&lt;/a&gt; &lt;a href=&quot;\nhttp://www.starshare.ro/bitbucket/vlcsnap2010-09-14-20h00m47s129.jpg&quot; rel=&quot;nofollow&quot; target=&quot;_NEW&quot;&gt;\nhttp://www.starshare.ro/bitbucket/vlcsnap2010-09-14-20h00m47s129.jpg&lt;/a&gt; \n\nGeneral\n\nComplete name                    : resident evil afterlife.mp4\n\nGenre                            :Action | Horror | Sci-Fi | Thriller\n\nIMDB                             :http://www.imdb.com/title/tt1220634/\n\nLanguage                         : Hindi\n\nFormat                           : MPEG-4\n\nFormat profile                   : Sony PSP\n\nCodec ID                         : MSNV\n\nFile size                        : 987 MiB\n\nDuration                         : 1h 25mn\n\nOverall bit rate                 : 1 606 Kbps\n\n\nVideo\n\nFormat                           : AVC\n\nFormat/Info                      : Advanced Video Codec\n\nFormat profile                   : &lt;a class=&quot;__cf_email__&quot; href=&quot;/cdn-cgi/l/email-protection&quot; data-cfemail=&quot;3b795a485e5752555e7b7708150b&quot;&gt;[email&amp;#160;protected]&lt;/a&gt;&lt;script data-cfhash='f9e31' type=&quot;text/javascript&quot;&gt;\n/* &lt;![CDATA[ */!function(){try{var t=&quot;currentScript&quot;in document?document.currentScript:function(){for(var t=document.getElementsByTagName(&quot;script&quot;),e=t.length;e--;)if(t[e].getAttribute(&quot;data-cfhash&quot;))return t[e]}();if(t&amp;&amp;t.previousSibling){var e,r,n,i,c=t.previousSibling,a=c.getAttribute(&quot;data-cfemail&quot;);if(a){for(e=&quot;&quot;,r=parseInt(a.substr(0,2),16),n=2;a.length-n;n+=2)i=parseInt(a.substr(n,2),16)^r,e+=String.fromCharCode(i);e=document.createTextNode(e),c.parentNode.replaceChild(e,c)}t.parentNode.removeChild(t);}}catch(u){}}()/* ]]&gt; */&lt;/script&gt;\n\nFormat settings, CABAC           : No\n\nFormat settings, ReFrames        : 1 frame\n\nCodec ID                         : avc1\n\nCodec ID/Info                    : Advanced Video Coding\n\nDuration                         : 1h 25mn\n\nBit rate mode                    : Variable\n\nBit rate                         : 1 500 Kbps\n\nWidth                            : 640 pixels\n\nHeight                           : 480 pixels\n\nDisplay aspect ratio             : 4:3\n\nFrame rate mode                  : Constant\n\nFrame rate                       : 29.970 fps\n\nResolution                       : 24 bits\n\nColorimetry                      : 4:2:0\n\nScan type                        : Progressive\n\nBits/(Pixel*Frame)               : 0.163\n\nStream size                      : 921 MiB (93%)\n\n\nAudio\n\nFormat                           : AAC\n\nLanguage                         : Hindi\n\nFormat/Info                      : Advanced Audio Codec\n\nFormat version                   : Version 4\n\nFormat profile                   : LC\n\nFormat settings, SBR             : No\n\nCodec ID                         : 40\n\nDuration                         : 1h 25mn\n\nBit rate mode                    : Constant\n\nBit rate                         : 104 Kbps\n\nNominal bit rate                 : 128 Kbps\n\nChannel(s)                       : 2 channels\n\nChannel positions                : L R\n\nSampling rate                    : 48.0 KHz\n\nResolution                       : 16 bits\n\nStream size                      : 64.0 MiB (6%)\n\nby \nTheAaax9 (Mr.Akshay)\n\n                             $$TheAaax9$$","torrent":{"xt":"urn:btih:36a4307919c2a0e467b23e052b601f7e58532630","amp;dn":"Resident+evil+afterlife+hindi+by+TheAaax9","amp;tr":["udp%3A%2F%2Ftracker.openbittorrent.com%3A80","udp%3A%2F%2Fopen.demonii.com%3A1337","udp%3A%2F%2Ftracker.coppersurfer.tk%3A6969","udp%3A%2F%2Fexodus.desync.com%3A6969"],"infoHash":"36a4307919c2a0e467b23e052b601f7e58532630","infoHashBuffer":{"type":"Buffer","data":[54,164,48,121,25,194,160,228,103,178,62,5,43,96,31,126,88,83,38,48]},"announce":[],"urlList":[]}}